<svg xmlns="http://www.w3.org/2000/svg" width="940.663" height="640.573" viewBox="0 0 940.663 640.573">
  <g id="Group_3" data-name="Group 3" transform="translate(-462.108 -218)">
    <path id="Path_2" data-name="Path 2" d="M397.631,306.121s17.683-3.679,30.09,13.189,1.961,42.979,8.142,60.595,29.853,28.37,29.853,28.37" transform="translate(212.626 182.972)" fill="none" stroke="#ffe9aa" stroke-linecap="round" stroke-width="5"/>
    <path id="Path_3" data-name="Path 3" d="M397.631,306.121s17.683-3.679,30.09,13.189,1.961,42.979,8.142,60.595,29.853,28.37,29.853,28.37" transform="translate(891.578 -8.468)" fill="none" stroke="#ffe9aa" stroke-linecap="round" stroke-width="5"/>
    <path id="Path_5" data-name="Path 5" d="M0,.339S17.683-3.339,30.09,13.529s1.961,42.979,8.142,60.595,29.853,28.37,29.853,28.37" transform="matrix(-0.087, -0.996, 0.996, -0.087, 1157.111, 704.988)" fill="none" stroke="#ffe9aa" stroke-linecap="round" stroke-width="5"/>
    <path id="Path_7" data-name="Path 7" d="M0,.339S17.683-3.339,30.09,13.529s1.961,42.979,8.142,60.595,29.853,28.37,29.853,28.37" transform="matrix(-0.087, -0.996, 0.996, -0.087, 470.882, 301.847)" fill="none" stroke="#ffe9aa" stroke-linecap="round" stroke-width="5"/>
    <g id="Polygon_2" data-name="Polygon 2" transform="translate(657 218)" fill="none">
      <path d="M26.5,0,53,58H0Z" stroke="none"/>
      <path d="M 26.5 12.03155136108398 L 7.781658172607422 53 L 45.21834182739258 53 L 26.5 12.03155136108398 M 26.5 0 L 53 58 L 0 58 L 26.5 0 Z" stroke="none" fill="#ffb2b2"/>
    </g>
    <g id="Polygon_3" data-name="Polygon 3" transform="translate(1322.08 595.963) rotate(-93)" fill="none">
      <path d="M26.5,0,53,58H0Z" stroke="none"/>
      <path d="M 26.5 12.03155136108398 L 7.781658172607422 53 L 45.21834182739258 53 L 26.5 12.03155136108398 M 26.5 0 L 53 58 L 0 58 L 26.5 0 Z" stroke="none" fill="#ffb2b2"/>
    </g>
    <g id="Polygon_4" data-name="Polygon 4" transform="matrix(0.407, 0.914, -0.914, 0.407, 935.813, 772.55)" fill="none">
      <path d="M26.5,0,53,58H0Z" stroke="none"/>
      <path d="M 26.5 12.03155136108398 L 7.781658172607422 53 L 45.21834182739258 53 L 26.5 12.03155136108398 M 26.5 0 L 53 58 L 0 58 L 26.5 0 Z" stroke="none" fill="#ffb2b2"/>
    </g>
    <g id="Polygon_5" data-name="Polygon 5" transform="matrix(0.407, 0.914, -0.914, 0.407, 588.7, 750.56)" fill="none">
      <path d="M26.5,0,53,58H0Z" stroke="none"/>
      <path d="M 26.5 12.03155136108398 L 7.781658172607422 53 L 45.21834182739258 53 L 26.5 12.03155136108398 M 26.5 0 L 53 58 L 0 58 L 26.5 0 Z" stroke="none" fill="#ffb2b2"/>
    </g>
    <g id="Polygon_6" data-name="Polygon 6" transform="matrix(0.407, 0.914, -0.914, 0.407, 1381.214, 786.564)" fill="none">
      <path d="M26.5,0,53,58H0Z" stroke="none"/>
      <path d="M 26.5 12.03155136108398 L 7.781658172607422 53 L 45.21834182739258 53 L 26.5 12.03155136108398 M 26.5 0 L 53 58 L 0 58 L 26.5 0 Z" stroke="none" fill="#ffb2b2"/>
    </g>
  </g>
</svg>
