<svg xmlns="http://www.w3.org/2000/svg" xmlns:xlink="http://www.w3.org/1999/xlink" width="100" height="100" viewBox="0 0 100 100">
  <defs>
    <linearGradient id="linear-gradient" x1="0.5" x2="0.863" y2="1" gradientUnits="objectBoundingBox">
      <stop offset="0" stop-color="#e86cff"/>
      <stop offset="1" stop-color="#ff5858"/>
    </linearGradient>
    <linearGradient id="linear-gradient-2" x1="0.5" x2="0.5" y2="1" gradientUnits="objectBoundingBox">
      <stop offset="0" stop-color="#fff250"/>
      <stop offset="1" stop-color="#ff7907"/>
    </linearGradient>
    <linearGradient id="linear-gradient-3" x1="0.5" x2="0.5" y2="1" gradientUnits="objectBoundingBox">
      <stop offset="0" stop-color="#00ffe2"/>
      <stop offset="1" stop-color="#6c48ff"/>
    </linearGradient>
    <clipPath id="clip-Custom_Size_1">
      <rect width="100" height="100"/>
    </clipPath>
  </defs>
  <g id="Custom_Size_1" data-name="Custom Size – 1" clip-path="url(#clip-Custom_Size_1)">
    <rect width="100" height="100" fill="#fff"/>
    <ellipse id="Ellipse_1" data-name="Ellipse 1" cx="99" cy="94.5" rx="99" ry="94.5" transform="translate(-125 -48)" fill="url(#linear-gradient)"/>
    <ellipse id="Ellipse_2" data-name="Ellipse 2" cx="32.5" cy="32" rx="32.5" ry="32" transform="translate(68 54)" fill="url(#linear-gradient-2)"/>
    <ellipse id="Ellipse_3" data-name="Ellipse 3" cx="41.5" cy="38.5" rx="41.5" ry="38.5" transform="translate(11 -27)" fill="url(#linear-gradient-3)"/>
    <g id="Icon_feather-smile" data-name="Icon feather-smile" transform="translate(32 32)">
      <path id="Path_1" data-name="Path 1" d="M33,18A15,15,0,1,1,18,3,15,15,0,0,1,33,18Z" fill="none" stroke="#fff" stroke-linecap="round" stroke-linejoin="round" stroke-width="3"/>
      <path id="Path_2" data-name="Path 2" d="M12,21a8.1,8.1,0,0,0,6,3,8.1,8.1,0,0,0,6-3" fill="none" stroke="#fff" stroke-linecap="round" stroke-linejoin="round" stroke-width="3"/>
      <path id="Path_3" data-name="Path 3" d="M13.5,13.5h.015" fill="none" stroke="#fff" stroke-linecap="round" stroke-linejoin="round" stroke-width="3"/>
      <path id="Path_4" data-name="Path 4" d="M22.5,13.5h.015" fill="none" stroke="#fff" stroke-linecap="round" stroke-linejoin="round" stroke-width="3"/>
    </g>
  </g>
</svg>
