<svg xmlns="http://www.w3.org/2000/svg" xmlns:xlink="http://www.w3.org/1999/xlink" viewBox="0 0 2308 1908"><defs><style>.cls-1,.cls-4{fill:none;}.cls-2{fill:#ffe99a;}.cls-3{fill:#ffe0cc;}.cls-4,.cls-5{stroke:#ffe99a;stroke-miterlimit:10;stroke-width:8px;}.cls-5{fill:url(#New_Pattern);}</style><pattern id="New_Pattern" data-name="New Pattern" width="220.5" height="302" patternUnits="userSpaceOnUse" viewBox="0 0 220.5 302"><rect class="cls-1" width="220.5" height="302"/><path class="cls-2" d="M216.64,234.5H118.86a.61.61,0,0,0-.61.61V368.89a.61.61,0,0,0,.61.61h97.78a.61.61,0,0,0,.61-.61V235.11a.61.61,0,0,0-.61-.61m0-8a8.61,8.61,0,0,1,8.61,8.61V368.89a8.6,8.6,0,0,1-8.61,8.61H118.86a8.61,8.61,0,0,1-8.61-8.61V235.11a8.62,8.62,0,0,1,8.61-8.61Z"/><circle class="cls-3" cx="168.25" cy="301.5" r="32"/><path class="cls-2" d="M-3.86,234.5h-97.78a.61.61,0,0,0-.61.61V368.89a.61.61,0,0,0,.61.61H-3.86a.61.61,0,0,0,.61-.61V235.11a.61.61,0,0,0-.61-.61m0-8a8.61,8.61,0,0,1,8.61,8.61V368.89a8.6,8.6,0,0,1-8.61,8.61h-97.78a8.61,8.61,0,0,1-8.61-8.61V235.11a8.62,8.62,0,0,1,8.61-8.61Z"/><line class="cls-4" x1="3.25" y1="302" x2="110.25" y2="302"/><path class="cls-2" d="M106.39,83.5H8.61a.61.61,0,0,0-.61.61V217.89a.61.61,0,0,0,.61.61h97.78a.61.61,0,0,0,.61-.61V84.11a.61.61,0,0,0-.61-.61m0-8A8.61,8.61,0,0,1,115,84.11V217.89a8.6,8.6,0,0,1-8.61,8.61H8.61A8.61,8.61,0,0,1,0,217.89V84.11A8.62,8.62,0,0,1,8.61,75.5Z"/><circle class="cls-3" cx="58" cy="150.5" r="32"/><line class="cls-4" x1="113.5" y1="151" x2="220.5" y2="151"/><path class="cls-2" d="M216.64-67.5H118.86a.61.61,0,0,0-.61.61V66.89a.61.61,0,0,0,.61.61h97.78a.61.61,0,0,0,.61-.61V-66.89a.61.61,0,0,0-.61-.61m0-8a8.61,8.61,0,0,1,8.61,8.61V66.89a8.6,8.6,0,0,1-8.61,8.61H118.86a8.61,8.61,0,0,1-8.61-8.61V-66.89a8.62,8.62,0,0,1,8.61-8.61Z"/><circle class="cls-3" cx="168.25" cy="-0.5" r="32"/><path class="cls-2" d="M-3.86-67.5h-97.78a.61.61,0,0,0-.61.61V66.89a.61.61,0,0,0,.61.61H-3.86a.61.61,0,0,0,.61-.61V-66.89a.61.61,0,0,0-.61-.61m0-8a8.61,8.61,0,0,1,8.61,8.61V66.89A8.6,8.6,0,0,1-3.86,75.5h-97.78a8.61,8.61,0,0,1-8.61-8.61V-66.89a8.62,8.62,0,0,1,8.61-8.61Z"/><line class="cls-4" x1="3.25" x2="110.25"/></pattern></defs><g id="Layer_2" data-name="Layer 2"><g id="Circle"><rect class="cls-5" x="4" y="4" width="2300" height="1900"/></g></g></svg>